<svg xmlns="http://www.w3.org/2000/svg" width="48" height="48" viewBox="0 0 48 48"><g fill="#FFFDF4" stroke="#2B2A3A" stroke-width="3" stroke-linejoin="round"><rect x="20" y="2" width="8" height="10" rx="2" transform="rotate(0 24 24)"/><rect x="20" y="2" width="8" height="10" rx="2" transform="rotate(45 24 24)"/><rect x="20" y="2" width="8" height="10" rx="2" transform="rotate(90 24 24)"/><rect x="20" y="2" width="8" height="10" rx="2" transform="rotate(135 24 24)"/><rect x="20" y="2" width="8" height="10" rx="2" transform="rotate(180 24 24)"/><rect x="20" y="2" width="8" height="10" rx="2" transform="rotate(225 24 24)"/><rect x="20" y="2" width="8" height="10" rx="2" transform="rotate(270 24 24)"/><rect x="20" y="2" width="8" height="10" rx="2" transform="rotate(315 24 24)"/><circle cx="24" cy="24" r="15"/></g><circle cx="24" cy="24" r="15" fill="#FFFDF4"/><circle cx="24" cy="24" r="6.5" fill="#AEB7C2" stroke="#2B2A3A" stroke-width="3"/><circle cx="24" cy="24" r="15" fill="none" stroke="#2B2A3A" stroke-width="3"/></svg>
